<svg id="Layer_1" data-name="Layer 1" xmlns="http://www.w3.org/2000/svg" viewBox="0 0 372.2 52.2"><defs><style>.cls-1{fill:#096bb4;}.cls-2{fill:#747678;}</style></defs><title>BP-Logo-colour</title><path class="cls-1" d="M82.7,63.9h0a.88.88,0,0,1-.9-.8c0-.2,0-.3.1-.4l6.3-8.9c3.1-4.4,3.5-4.8,3.5-9.3V13.6a1.69,1.69,0,0,1,1.7-1.7h5.2a1.75,1.75,0,0,1,1.7,1.7v32c0,4.6-1.4,6.5-4.2,10.6l-5.3,7.2a1.43,1.43,0,0,1-1.2.6H82.7Z" transform="translate(-11.5 -11.8)"/><path class="cls-1" d="M34.9,30.8a.7.7,0,0,1,.2-.4,9.35,9.35,0,0,0,4.4-8.1c0-7.2-6.2-10.5-11.9-10.5H13.2a1.69,1.69,0,0,0-1.7,1.7V48.7a1.75,1.75,0,0,0,1.7,1.7H28.5c5.8,0,12.1-3.4,12.1-10.3a9.78,9.78,0,0,0-5.6-9c.1.1-.1-.1-.1-.3M20.1,19.1a.9.9,0,0,1,.9-.9h3.5c2.3,0,6.1.5,6.1,4.6,0,3.9-4.2,4.5-5.9,4.5H21a.9.9,0,0,1-.9-.9Zm7.7,24.7a26.42,26.42,0,0,1-2.9.2h-4a.9.9,0,0,1-.9-.9V35.5a.9.9,0,0,1,.9-.9h4.2a22.82,22.82,0,0,1,2.7.2,4.48,4.48,0,0,1,3.7,4.6,4.61,4.61,0,0,1-3.7,4.4" transform="translate(-11.5 -11.8)"/><path class="cls-1" d="M72.5,27.5c.1-.1.2-.2.3-.2a.43.43,0,0,1,.4.4v21a1.69,1.69,0,0,0,1.7,1.7h5.2a1.75,1.75,0,0,0,1.7-1.7V13.5a1.69,1.69,0,0,0-1.7-1.7H74.6a1.6,1.6,0,0,0-1.4.8L64.5,24.7c-.1.1-.2.2-.3.2s-.3-.1-.3-.2L55.3,12.6a1.6,1.6,0,0,0-1.4-.8H48.6a1.76,1.76,0,0,0-1.9,1.8V48.8a1.69,1.69,0,0,0,1.7,1.7h5.1a1.69,1.69,0,0,0,1.7-1.7v-21a.43.43,0,0,1,.4-.4c.1,0,.3.1.3.2l6.3,9a1.75,1.75,0,0,0,1.4.7h1a1.75,1.75,0,0,0,1.4-.7Z" transform="translate(-11.5 -11.8)"/><path class="cls-2" d="M114.8,48.3V13.5h9.9c3.5,0,6.1.8,7.9,2.4a8.31,8.31,0,0,1,2.7,6.5,6.57,6.57,0,0,1-1.9,5.1,9,9,0,0,1-4.9,2.3,11.95,11.95,0,0,1,5.8,2.2,7.53,7.53,0,0,1,2,2.6,9.35,9.35,0,0,1,.8,3.9,8.68,8.68,0,0,1-.8,4,8.13,8.13,0,0,1-2.1,3,8.52,8.52,0,0,1-3.2,1.9,13.55,13.55,0,0,1-4.1.7H114.8Zm4.2-20h5.4a6.52,6.52,0,0,0,4.8-1.7,6,6,0,0,0,1.7-4.4q0-5.1-6-5.1H119Zm0,16.4h7.7a6.09,6.09,0,0,0,4.3-1.5c1.1-1,1.6-2.6,1.6-4.7q0-6.6-8.1-6.6H119Z" transform="translate(-11.5 -11.8)"/><path class="cls-2" d="M144.9,35.6A11.83,11.83,0,0,0,147,43a7.42,7.42,0,0,0,6.2,2.7,7.24,7.24,0,0,0,4-1.1,9.88,9.88,0,0,0,2.6-2.8l2.7,1.8a12,12,0,0,1-3.5,3.9,10,10,0,0,1-5.8,1.5,13.64,13.64,0,0,1-5.1-.9,10.08,10.08,0,0,1-3.8-2.5,9.91,9.91,0,0,1-2.4-4.1,16.24,16.24,0,0,1-.9-5.7,16.88,16.88,0,0,1,.8-5.3,13.42,13.42,0,0,1,2.2-4.1,10,10,0,0,1,3.5-2.6,11.44,11.44,0,0,1,4.6-.9,12.09,12.09,0,0,1,4.8.9,8.84,8.84,0,0,1,3.4,2.6,10.49,10.49,0,0,1,2,4.1,21.08,21.08,0,0,1,.7,5.2H144.9Zm13.6-3.2a6.09,6.09,0,0,0-.6-2.8,6.18,6.18,0,0,0-1.5-2,8.17,8.17,0,0,0-2-1.2,6.2,6.2,0,0,0-2.3-.4,6.44,6.44,0,0,0-4.3,1.5,8.75,8.75,0,0,0-2.5,5h13.2Z" transform="translate(-11.5 -11.8)"/><path class="cls-2" d="M170,42.1a6.48,6.48,0,0,0,2.3,2.6,6.76,6.76,0,0,0,3.7.9q5.1,0,5.1-3.6a4.84,4.84,0,0,0-.3-1.8,3.6,3.6,0,0,0-1.1-1.4,7.49,7.49,0,0,0-2-1.1,28.52,28.52,0,0,0-2.9-1.2c-1.2-.4-2.3-.9-3.2-1.3a9.51,9.51,0,0,1-2.1-1.5,5.54,5.54,0,0,1-1.2-1.9,6.05,6.05,0,0,1-.4-2.4,5.48,5.48,0,0,1,2.2-4.7A9.61,9.61,0,0,1,176,23a11.32,11.32,0,0,1,5.1,1,8.67,8.67,0,0,1,3.4,2.9l-2.8,2.2a12.06,12.06,0,0,0-2.4-2.1,5.66,5.66,0,0,0-3.2-.8,5,5,0,0,0-3.3.9,2.76,2.76,0,0,0-1.1,2.1,3.19,3.19,0,0,0,.3,1.4,2.59,2.59,0,0,0,1,1.1,10.93,10.93,0,0,0,1.9,1c.8.3,1.8.7,3,1.1a13.46,13.46,0,0,1,5.2,3,6.49,6.49,0,0,1,1.8,4.8,6.83,6.83,0,0,1-.7,3.2,6,6,0,0,1-1.9,2.3,8.18,8.18,0,0,1-2.8,1.4,13.45,13.45,0,0,1-3.5.5,11.58,11.58,0,0,1-5.8-1.3,10.68,10.68,0,0,1-3.3-3.4Z" transform="translate(-11.5 -11.8)"/><path class="cls-2" d="M195.7,42.6a3,3,0,0,0,.7,2.4,2.79,2.79,0,0,0,1.8.6,4.06,4.06,0,0,0,1.9-.4,8.64,8.64,0,0,0,1.6-1l1.6,2.7a10,10,0,0,1-2.4,1.4,9.54,9.54,0,0,1-3.3.5,6.17,6.17,0,0,1-4.3-1.4,5.86,5.86,0,0,1-1.5-4.4V26.7h-4.3V23.4h4.3V16.6h4v6.8h6.5v3.3h-6.6Z" transform="translate(-11.5 -11.8)"/><path class="cls-2" d="M216.2,48.3V13.5H227c4,0,7,.9,8.9,2.7s2.9,4.4,2.9,7.9-1,5.9-3.1,7.7-5,2.6-8.9,2.6h-6.5v14h-4.1Zm4.1-17.6h6.8a8.07,8.07,0,0,0,5.2-1.6c1.3-1.1,2-2.8,2-5.2s-.6-4.1-1.9-5.2a7.64,7.64,0,0,0-5.3-1.6h-6.8Z" transform="translate(-11.5 -11.8)"/><path class="cls-2" d="M243.9,48.3V23.4h3.6l.3,2.2a10.93,10.93,0,0,1,2.6-1.9,6.2,6.2,0,0,1,3.2-.9c.8,0,1.5.1,2.1.1a13,13,0,0,1,1.5.3l-.7,3.7a8.11,8.11,0,0,0-3.3-.6,6,6,0,0,0-2.9.8,24.92,24.92,0,0,0-2.4,1.7V48.1h-4Z" transform="translate(-11.5 -11.8)"/><path class="cls-2" d="M274.5,48.3l-.2-2.1a9.85,9.85,0,0,1-3,2,9,9,0,0,1-3.7.7,11.85,11.85,0,0,1-3.2-.5,7.2,7.2,0,0,1-2.7-1.5,7.49,7.49,0,0,1-1.9-2.4,7.39,7.39,0,0,1-.7-3.4,7,7,0,0,1,1.4-4.4,10.67,10.67,0,0,1,3.6-2.7,15.47,15.47,0,0,1,4.9-1.4,31.15,31.15,0,0,1,5.2-.4v-.3c0-2.1-.4-3.6-1.3-4.5a5.22,5.22,0,0,0-3.8-1.4,7.22,7.22,0,0,0-3.2.8,6.77,6.77,0,0,0-2.4,2l-2.8-2a8.56,8.56,0,0,1,3.6-3,13,13,0,0,1,5.2-1,9.41,9.41,0,0,1,6.5,2.1c1.5,1.4,2.3,3.8,2.3,7.1V48.2h-3.8Zm-.4-13a22.8,22.8,0,0,0-3.6.3,13.54,13.54,0,0,0-3.6.8,7.34,7.34,0,0,0-2.7,1.7,4.43,4.43,0,0,0-1.1,3,3.94,3.94,0,0,0,.5,2,4.07,4.07,0,0,0,1.2,1.4,4.81,4.81,0,0,0,1.6.8,5,5,0,0,0,1.7.2,8.08,8.08,0,0,0,3.4-.8,12.71,12.71,0,0,0,2.7-1.8V35.3Z" transform="translate(-11.5 -11.8)"/><path class="cls-2" d="M304.9,43a10.39,10.39,0,0,1-4,4.5,10.28,10.28,0,0,1-5.3,1.4,12.6,12.6,0,0,1-4.3-.8,9.85,9.85,0,0,1-3.7-2.4,12.58,12.58,0,0,1-2.6-4,14.17,14.17,0,0,1-1-5.7,15.72,15.72,0,0,1,1-6,12,12,0,0,1,2.6-4.1,10,10,0,0,1,3.6-2.3,11.79,11.79,0,0,1,4.1-.7,10.64,10.64,0,0,1,3.7.6,7.18,7.18,0,0,1,2.7,1.6,6.68,6.68,0,0,1,1.8,2,7,7,0,0,1,1,1.9l-3,1.9a7,7,0,0,0-2.8-3.6,6.56,6.56,0,0,0-3.5-1.1,5.44,5.44,0,0,0-2.7.7,6,6,0,0,0-2.3,1.9,9.22,9.22,0,0,0-1.7,3.1,13.3,13.3,0,0,0-.6,4.2,13.3,13.3,0,0,0,.6,4.2,10.3,10.3,0,0,0,1.7,3.1,6.67,6.67,0,0,0,2.5,1.9,8.24,8.24,0,0,0,3.1.7,6.43,6.43,0,0,0,3.5-1,7.47,7.47,0,0,0,2.8-3.4Z" transform="translate(-11.5 -11.8)"/><path class="cls-2" d="M315.5,42.6a3,3,0,0,0,.7,2.4,2.79,2.79,0,0,0,1.8.6,4.06,4.06,0,0,0,1.9-.4,8.64,8.64,0,0,0,1.6-1l1.6,2.7a10,10,0,0,1-2.4,1.4,9.54,9.54,0,0,1-3.3.5,6.17,6.17,0,0,1-4.3-1.4,5.86,5.86,0,0,1-1.5-4.4V26.7h-4.3V23.4h4.3V16.6h4v6.8h6.5v3.3h-6.6V42.6Z" transform="translate(-11.5 -11.8)"/><path class="cls-2" d="M329,19.5a2.46,2.46,0,0,1-1.9-.9,3.16,3.16,0,0,1,0-4.2,2.32,2.32,0,0,1,1.9-.9,2.46,2.46,0,0,1,1.9.9,3.16,3.16,0,0,1,0,4.2,2.46,2.46,0,0,1-1.9.9m-2,3.9h4.1V48.3H327Z" transform="translate(-11.5 -11.8)"/><path class="cls-2" d="M358,43a10.39,10.39,0,0,1-4,4.5,10.28,10.28,0,0,1-5.3,1.4,12.6,12.6,0,0,1-4.3-.8,9.85,9.85,0,0,1-3.7-2.4,12.58,12.58,0,0,1-2.6-4,14.17,14.17,0,0,1-1-5.7,15.72,15.72,0,0,1,1-6,12,12,0,0,1,2.6-4.1,9.6,9.6,0,0,1,3.7-2.3,11.79,11.79,0,0,1,4.1-.7,10.64,10.64,0,0,1,3.7.6,7.18,7.18,0,0,1,2.7,1.6,8.37,8.37,0,0,1,1.8,2,7,7,0,0,1,1,1.9l-3,1.9a7,7,0,0,0-2.8-3.6,6.56,6.56,0,0,0-3.5-1.1,5.44,5.44,0,0,0-2.7.7,6,6,0,0,0-2.3,1.9,9.22,9.22,0,0,0-1.7,3.1,13.3,13.3,0,0,0-.6,4.2,13.3,13.3,0,0,0,.6,4.2,10.3,10.3,0,0,0,1.7,3.1,6.67,6.67,0,0,0,2.5,1.9,8.19,8.19,0,0,0,3,.7,6.43,6.43,0,0,0,3.5-1,8.14,8.14,0,0,0,2.8-3.4Z" transform="translate(-11.5 -11.8)"/><path class="cls-2" d="M365.7,35.6a11.83,11.83,0,0,0,2.1,7.4,7.42,7.42,0,0,0,6.2,2.7,7.24,7.24,0,0,0,4-1.1,9.88,9.88,0,0,0,2.6-2.8l2.7,1.8a12,12,0,0,1-3.5,3.9A10,10,0,0,1,374,49a13.64,13.64,0,0,1-5.1-.9,10.08,10.08,0,0,1-3.8-2.5,11.31,11.31,0,0,1-2.5-4.1,16.24,16.24,0,0,1-.9-5.7,16.88,16.88,0,0,1,.8-5.3,13.42,13.42,0,0,1,2.2-4.1,10,10,0,0,1,3.5-2.6,11.44,11.44,0,0,1,4.6-.9,12.09,12.09,0,0,1,4.8.9,8.84,8.84,0,0,1,3.4,2.6,10.49,10.49,0,0,1,2,4.1,17.22,17.22,0,0,1,.7,5.2h-18Zm13.6-3.2a6.09,6.09,0,0,0-.6-2.8,6.18,6.18,0,0,0-1.5-2,8.17,8.17,0,0,0-2-1.2,6.2,6.2,0,0,0-2.3-.4,6.44,6.44,0,0,0-4.3,1.5,8.75,8.75,0,0,0-2.5,5h13.2Z" transform="translate(-11.5 -11.8)"/></svg>